<svg width="1440" height="900" viewBox="0 0 1440 900" fill="none" xmlns="http://www.w3.org/2000/svg">
<path fill-rule="evenodd" clip-rule="evenodd" d="M333.918 501.174C359.742 507.348 388.562 523.17 391.998 549.072C393.726 562.158 388.562 574.776 384.011 585.918L356.459 653.31C347.032 676.368 336.357 702.486 340.869 728.442C345.784 756.648 369.976 780.768 399.678 787.104C408.53 788.994 418.072 789.48 427.307 789.966C443.896 790.812 461.042 791.694 475.192 800.604C497.406 814.59 501.726 841.734 502.322 856.674C503.032 874.98 499.307 888.804 490.898 898.956C490.61 899.298 490.322 899.658 489.995 900H482.392C483.813 898.524 485.138 897.084 486.347 895.644C493.893 886.536 497.234 873.846 496.562 856.872C496.005 842.958 492.088 817.74 471.986 805.086C459.73 797.363 444.915 796.297 429.182 795.463L426.981 795.348C417.515 794.862 407.723 794.358 398.411 792.378C366.462 785.556 340.466 759.636 335.186 729.306C330.424 701.928 341.867 673.902 351.083 651.366L378.635 583.992C382.936 573.444 387.832 561.492 386.277 549.738C383.205 526.536 356.478 512.136 332.498 506.412C273.112 492.21 210.482 506.358 151.422 522.072C121.835 529.938 95.3968 537.552 71.5504 551.25C65.6368 554.634 59.8 558.468 54.1552 562.176C42.9424 569.556 31.3456 577.17 18.2512 581.958C11.224 584.532 3.1408 586.134 -5 586.296V580.914C2.3728 580.752 9.7648 579.276 16.1584 576.936C28.6 572.382 39.9088 564.948 50.8528 557.766C56.5744 554.004 62.4688 550.116 68.536 546.642C92.9968 532.62 120.952 524.556 149.848 516.87C209.656 500.958 273.15 486.648 333.918 501.174ZM356.306 475.866C382.994 482.76 401.368 492.03 414.117 505.062C424.427 515.592 446.814 546.282 431.838 603.378C427.499 619.866 421.01 635.994 414.712 651.618C408.242 667.638 401.56 684.216 397.278 701.118C395.109 709.632 393.458 719.442 397.47 727.704C400.12 733.122 405.15 737.856 412.869 742.194C426.827 750.042 443.224 753.624 459.064 757.08L461.923 757.706C478.15 761.271 494.734 765.209 508.715 773.964C530.027 787.302 544.485 811.836 548.363 841.266C550.955 860.904 549.035 880.632 546.002 900H544.062C547.096 880.668 549.035 860.994 546.462 841.482C542.642 812.574 528.491 788.508 507.64 775.458C494.352 767.142 478.499 763.227 462.89 759.777L460.056 759.153C459.584 759.05 459.112 758.947 458.642 758.844C442.648 755.352 426.098 751.734 411.89 743.742C403.826 739.206 398.526 734.202 395.723 728.46C391.461 719.694 393.17 709.506 395.416 700.704C399.736 683.694 406.437 667.062 412.907 650.97C419.186 635.418 425.675 619.326 429.957 602.946C444.722 546.696 422.795 516.6 412.696 506.268C400.216 493.506 382.13 484.398 355.787 477.612C279.544 457.92 192.203 466.164 80.9392 503.532L74.2 505.818C48.6448 514.458 22.2256 523.386 -5 523.35V521.55C18.5704 521.597 41.5822 514.795 63.9839 507.342L67.18 506.274C69.308 505.559 71.4304 504.842 73.5472 504.126L80.3056 501.84C191.954 464.346 279.659 456.084 356.306 475.866ZM293.176 537.57C319.691 541.566 335.109 558.126 338.642 572.778C342.03 586.82 336.721 600.799 331.055 614.372L330.314 616.14C330.191 616.434 330.067 616.728 329.944 617.022L329.003 619.272C309.554 665.82 303.736 705.33 311.224 740.034C322.187 790.812 360.798 819.954 394.206 826.326C397.355 826.938 400.638 827.388 403.826 827.82C411.41 828.882 419.243 829.98 426.309 833.148C442.533 840.474 452.709 858.996 451.038 878.202C450.405 885.42 448.254 892.728 444.683 900H442.571C445.95 893.322 448.427 885.942 449.118 878.058C450.731 859.572 441.016 841.77 425.464 834.768C418.686 831.708 410.987 830.646 403.538 829.602C400.331 829.17 397.029 828.702 393.822 828.09C373.067 824.13 353.944 813.186 338.488 796.428C324.146 780.858 313.797 760.968 309.342 740.394C301.778 705.33 307.614 665.496 327.218 618.606L328.158 616.356C334.11 602.208 340.235 587.592 336.779 573.174C333.381 559.116 318.501 543.204 292.869 539.334C278.699 537.21 264.184 539.64 250.149 542.016C245.387 542.808 240.491 543.636 235.672 544.266C215.224 546.966 194.776 551.178 174.885 556.83C134.757 568.224 97.1248 585.198 63.0064 607.284C61.2784 608.382 59.5696 609.516 57.8416 610.65C45.9952 618.444 33.7264 626.49 19.576 630C11.5504 631.998 3.3712 632.43 -5 632.592V630.792C3.2176 630.63 11.2624 630.198 19.096 628.272C32.92 624.834 45.0352 616.878 56.7472 609.174C58.4752 608.04 60.184 606.906 61.912 605.79C96.2032 583.614 134.008 566.568 174.328 555.12C194.315 549.432 214.859 545.184 235.403 542.484C240.184 541.854 245.08 541.044 249.803 540.234C263.992 537.84 278.68 535.374 293.176 537.57ZM270.405 745.794C274.475 752.778 274.706 760.842 274.936 768.654C275.07 773.748 275.224 779.004 276.434 783.9C279.813 797.562 291.006 809.334 311.704 820.98C324.894 828.414 338.891 834.714 353.33 839.754L357.131 841.05C373.106 846.54 391.23 852.768 398.488 867.528C402.77 876.276 402.405 887.4 397.509 897.282C397.048 898.2 396.568 899.1 396.03 900H393.822C394.552 898.848 395.186 897.696 395.762 896.526C400.427 887.112 400.792 876.546 396.741 868.284C390.532 855.623 376.22 849.644 361.473 844.475L359.802 843.893C358.688 843.507 357.572 843.124 356.459 842.742L352.658 841.428C338.123 836.37 324.011 830.016 310.706 822.528C289.547 810.612 278.066 798.462 274.571 784.314C273.304 779.238 273.15 773.874 273.016 768.708C272.786 760.752 272.574 753.246 268.715 746.64C260.92 733.23 241.144 730.35 226.494 734.454C213.842 737.982 202.84 745.542 192.203 752.85C189.746 754.524 187.288 756.216 184.811 757.836C156.856 776.34 123.371 790.83 79.4224 803.412C53.752 810.774 24.4144 817.524 -5 815.4V813.582C24.1456 815.724 53.3104 808.992 78.8464 801.684C122.603 789.156 155.915 774.756 183.717 756.378C186.174 754.74 188.613 753.066 191.07 751.392C201.842 743.994 212.978 736.344 225.938 732.726C241.317 728.424 262.11 731.538 270.405 745.794ZM240.414 797.04C243.563 801.522 244.946 806.778 246.29 811.872C246.693 813.42 247.096 814.95 247.538 816.462C253.566 836.73 269.138 852.822 288.184 858.492C292.85 859.878 297.784 860.688 302.546 861.462C306.213 862.056 310.014 862.668 313.701 863.55C324.165 866.052 331.787 870.66 335.723 876.888C340.427 884.34 339.525 892.692 336.779 900H334.763C337.528 892.962 338.565 884.898 334.072 877.806C329.426 870.462 320.171 866.952 313.221 865.296C309.611 864.432 305.848 863.82 302.219 863.226C297.381 862.452 292.389 861.642 287.608 860.22C267.947 854.37 251.877 837.792 245.694 816.948C245.234 815.418 244.83 813.87 244.427 812.304C243.122 807.372 241.778 802.242 238.821 798.03C231.736 787.986 217.067 785.412 205.682 787.338C194.507 789.228 184.254 794.628 174.366 799.866L171.122 801.558C129.304 823.446 66.5008 847.62 -5 846.162V844.38C66.0976 845.838 128.574 821.772 170.2 799.992L173.406 798.282C183.448 792.99 193.835 787.5 205.336 785.574C217.355 783.54 232.85 786.312 240.414 797.04ZM203.378 840.924C208.006 844.472 210.586 849.532 212.936 854.579L213.573 855.954C215.243 859.572 216.971 863.298 219.371 866.466C224.978 873.828 234.117 878.04 242.93 882.108C244.274 882.72 245.598 883.332 246.904 883.962C251.032 885.906 255.678 888.336 258.309 892.386C259.864 894.762 260.574 897.462 260.978 900H259.038C258.654 897.732 258.002 895.356 256.677 893.322C254.296 889.686 249.938 887.4 246.04 885.564C244.734 884.952 243.41 884.34 242.085 883.728L240.332 882.917C231.85 878.983 223.312 874.751 217.816 867.51C215.282 864.18 213.515 860.364 211.806 856.656C209.253 851.13 206.853 845.91 202.168 842.328C196.677 838.134 188.152 836.802 179.378 838.782C172.619 840.294 166.283 843.408 160.158 846.414C159.064 846.954 157.989 847.476 156.914 847.998C106.072 872.478 48.3184 879.372 -5 883.656V881.856C48.1072 877.572 105.554 870.696 156.03 846.396C157.106 845.874 158.181 845.352 159.256 844.812C165.496 841.77 171.947 838.602 178.936 837.036C188.421 834.894 197.33 836.316 203.378 840.924ZM177.458 893.178C180.453 894.996 183.237 897.174 185.944 899.262L186.885 900H183.87C181.49 898.128 179.013 896.274 176.421 894.69C163.307 886.77 145.47 885.366 123.371 890.532C116.824 892.062 110.258 894.024 103.902 895.914C99.1984 897.3 94.3984 898.74 89.56 900H81.9952C89.2336 898.398 96.3568 896.274 103.326 894.204C109.701 892.296 116.306 890.334 122.91 888.786C145.528 883.494 163.883 884.97 177.458 893.178ZM128.69 617.058C167.109 601.92 247.058 570.438 276.549 585.63C282.674 588.78 286.398 593.802 287.608 600.552C292.595 628.184 262.123 661.354 245.189 677.335L244.03 678.422C241.759 680.539 239.773 682.311 238.206 683.676C211.902 706.59 180.376 723.798 147.659 740.844C108.107 761.472 63.2752 784.836 14.4496 786.384C13.0288 786.438 11.608 786.456 10.2256 786.456C4.7344 786.456 -0.3344 786.096 -5 785.358V783.54C0.798399 784.476 7.2496 784.818 14.392 784.584C62.7568 783.054 107.378 759.798 146.738 739.278C179.339 722.286 210.75 705.15 236.901 682.362C249.784 671.13 291.352 632.106 285.707 600.858C284.594 594.684 281.195 590.094 275.627 587.214C246.962 572.436 167.57 603.702 129.438 618.714C121.336 621.9 114.962 624.42 111.198 625.662C72.6064 638.352 29.2336 652.608 -5 678.132V675.828C29.2912 650.682 72.2608 636.534 110.565 623.952C114.27 622.746 120.626 620.226 128.69 617.058ZM84.3184 664.308C94.8208 660.744 111.064 660.114 121.95 667.17C128.613 671.49 132.203 678.096 132.299 686.268C132.434 696.258 126.194 706.158 113.234 716.508C95.3392 730.818 74.008 741.852 49.7968 749.34C36.7216 753.39 25.4512 755.37 15.3136 755.37C10.6864 755.37 6.2704 754.956 2.0464 754.128C-0.0848003 753.732 -2.792 753.048 -5 751.626V749.304C-2.984 751.14 0.107199 751.914 2.4304 752.382C15.6208 754.92 30.4816 753.408 49.2016 747.63C73.1632 740.214 94.2832 729.288 111.986 715.14C124.485 705.15 130.494 695.718 130.379 686.286C130.283 678.618 127.077 672.678 120.856 668.646C112.005 662.904 97.2592 661.824 84.9904 666L79.96 667.71C58.1296 675.108 35.5504 682.74 17.6944 697.05C6.5392 705.996 -1.3136 716.85 -5 728.1V722.772C-0.7376 712.926 6.5968 703.566 16.4464 695.682C25.5088 688.428 35.7232 682.866 46.4176 678.204C57.1312 673.524 68.3056 669.744 79.3072 666.018L84.3184 664.308ZM219.947 618.12C230.853 617.544 238.974 620.532 242.238 626.274C245.406 631.818 243.698 639.198 237.419 647.046C225.419 662.076 205.413 671.364 185.598 671.364C184.312 671.364 183.006 671.328 181.72 671.238C179.474 671.094 177.112 670.842 174.962 669.852C169.182 667.188 167.493 660.492 167.781 655.578C168.357 646.002 174.923 636.336 185.31 629.73C190.59 626.382 196.466 623.628 202.418 621.63C208.35 619.632 214.379 618.408 219.947 618.12ZM222.52 619.848C221.714 619.848 220.888 619.884 220.043 619.92C209.253 620.478 196.677 624.69 186.405 631.224C181.451 634.356 177.419 638.226 174.539 642.42C171.678 646.632 169.989 651.168 169.701 655.686C169.432 660.042 170.872 665.964 175.806 668.232C177.65 669.078 179.8 669.312 181.854 669.438C202.264 670.716 223.48 661.5 235.883 645.966C241.682 638.712 243.352 632.016 240.549 627.12C237.88 622.44 231.39 619.848 222.52 619.848Z" fill="#575445" fill-opacity="0.09"/>
</svg>
